<?xml version="1.0" encoding="UTF-8"?>
<svg version="1.1" xmlns="http://www.w3.org/2000/svg" width="96" height="96">
<path d="M0 0 C4.7233252 1.43406982 7.59921499 4.20646093 10.95703125 7.6640625 C11.50485764 8.21613373 12.05268402 8.76820496 12.61711121 9.33700562 C14.35610823 11.09272422 16.08435158 12.85860863 17.8125 14.625 C18.99344477 15.821 20.17507823 17.01632039 21.35742188 18.2109375 C24.24631632 21.13281462 27.12561481 24.06385116 30 27 C33.98187392 25.40877651 36.58588468 22.62089487 39.5 19.58984375 C40.56238318 18.50704682 41.62488683 17.42436809 42.6875 16.34179688 C44.34892006 14.63682359 46.00779031 12.9294571 47.6640625 11.21948242 C49.26960373 9.56567032 50.8842397 7.92116417 52.5 6.27734375 C53.23766602 5.50704079 53.23766602 5.50704079 53.99023438 4.72117615 C58.55201531 0.09416371 58.55201531 0.09416371 62 0 C64.25 1.9375 64.25 1.9375 66 4 C64.56593018 8.7233252 61.79353907 11.59921499 58.3359375 14.95703125 C57.50783066 15.77877083 57.50783066 15.77877083 56.66299438 16.61711121 C54.90727578 18.35610823 53.14139137 20.08435158 51.375 21.8125 C50.179 22.99344477 48.98367961 24.17507823 47.7890625 25.35742188 C44.86718538 28.24631632 41.93614884 31.12561481 39 34 C40.59122349 37.98187392 43.37910513 40.58588468 46.41015625 43.5 C47.49295318 44.56238318 48.57563191 45.62488683 49.65820312 46.6875 C51.36317641 48.34892006 53.0705429 50.00779031 54.78051758 51.6640625 C56.43432968 53.26960373 58.07883583 54.8842397 59.72265625 56.5 C60.49295921 57.23766602 60.49295921 57.23766602 61.27882385 57.99023438 C65.90583629 62.55201531 65.90583629 62.55201531 66 66 C64.0625 68.25 64.0625 68.25 62 70 C57.2766748 68.56593018 54.40078501 65.79353907 51.04296875 62.3359375 C50.49514236 61.78386627 49.94731598 61.23179504 49.38288879 60.66299438 C47.64389177 58.90727578 45.91564842 57.14139137 44.1875 55.375 C43.00655523 54.179 41.82492177 52.98367961 40.64257812 51.7890625 C37.75368368 48.86718538 34.87438519 45.93614884 32 43 C28.01812608 44.59122349 25.41411532 47.37910513 22.5 50.41015625 C21.43761682 51.49295318 20.37511317 52.57563191 19.3125 53.65820312 C17.65107994 55.36317641 15.99220969 57.0705429 14.3359375 58.78051758 C12.73039627 60.43432968 11.1157603 62.07883583 9.5 63.72265625 C8.76233398 64.49295921 8.76233398 64.49295921 8.00976562 65.27882385 C3.44798469 69.90583629 3.44798469 69.90583629 0 70 C-2.25 68.0625 -2.25 68.0625 -4 66 C-2.56593018 61.2766748 0.20646093 58.40078501 3.6640625 55.04296875 C4.49216934 54.22122917 4.49216934 54.22122917 5.33700562 53.38288879 C7.09272422 51.64389177 8.85860863 49.91564842 10.625 48.1875 C11.821 47.00655523 13.01632039 45.82492177 14.2109375 44.64257812 C17.13281462 41.75368368 20.06385116 38.87438519 23 36 C21.40877651 32.01812608 18.62089487 29.41411532 15.58984375 26.5 C14.50704682 25.43761682 13.42436809 24.37511317 12.34179688 23.3125 C10.63682359 21.65107994 8.9294571 19.99220969 7.21948242 18.3359375 C5.56567032 16.73039627 3.92116417 15.1157603 2.27734375 13.5 C1.76380844 13.00822266 1.25027313 12.51644531 0.72117615 12.00976562 C-3.90583629 7.44798469 -3.90583629 7.44798469 -4 4 C-2.0625 1.75 -2.0625 1.75 0 0 Z " fill="#FFFFFF" transform="translate(17,13)"/>
</svg>
